<?xml version="1.0" standalone="no"?>
<!DOCTYPE svg PUBLIC "-//W3C//DTD SVG 20010904//EN"
 "http://www.w3.org/TR/2001/REC-SVG-20010904/DTD/svg10.dtd">
<svg version="1.0" xmlns="http://www.w3.org/2000/svg"
 width="2048.000000pt" height="2048.000000pt" viewBox="0 0 2048.000000 2048.000000"
 preserveAspectRatio="xMidYMid meet">
<metadata>
Created by potrace 1.14, written by Peter Selinger 2001-2017
</metadata>
<g transform="translate(0.000000,2048.000000) scale(0.100000,-0.100000)"
fill="#000000" stroke="none">
<path d="M0 10240 l0 -10240 10240 0 10240 0 0 10240 0 10240 -10240 0 -10240
0 0 -10240z m9010 1680 l0 -5460 -937 2 -938 3 -3 5458 -2 5457 940 0 940 0 0
-5460z m-3735 -5909 c524 -109 946 -485 1103 -981 57 -181 67 -248 66 -455 0
-168 -3 -204 -26 -306 -46 -206 -140 -410 -263 -574 -65 -87 -228 -245 -315
-306 -184 -131 -440 -235 -625 -255 -33 -3 -70 -13 -82 -20 -28 -18 -263 -20
-280 -3 -6 6 -53 18 -105 25 -121 18 -295 74 -411 133 -358 180 -618 483 -741
863 -52 161 -58 221 -54 493 5 235 5 242 37 350 42 142 152 365 235 475 35 48
109 129 164 181 232 223 501 351 847 403 77 11 353 -2 450 -23z m11100 -540
c139 -46 259 -134 350 -255 93 -124 163 -290 188 -441 6 -41 15 -75 19 -75 5
0 8 -63 8 -140 0 -77 -4 -140 -9 -140 -4 0 -11 -24 -15 -54 -9 -83 -53 -223
-97 -313 -81 -164 -205 -296 -344 -364 -152 -75 282 -69 -4777 -69 l-4558 0 0
940 0 940 4583 -2 4582 -3 70 -24z"/>
</g>
</svg>
